# xmcd CD database file
#
# Track frame offsets:
#	150
#	14886
#	32109
#	49457
#	66701
#	78523
#	93103
#	122835
#	138976
#	149570
#	165789
#	178464
#
# Disc length: 2531 seconds
#
# Revision: 3
# Processed by: cddbd v1.5.2PL0 Copyright (c) Steve Scherf et al.
# Submitted via: CDex 1.51
#
DISCID=b509e10c
DTITLE=Carey and Lurrie Bell - Son Of A Gun
DYEAR=1900
DGENRE=Blues
TTITLE0=Ballbuster
TTITLE1=Better Break It Up
TTITLE2=I'm A Fool
TTITLE3=I'll Be Your 44
TTITLE4=Kick Me In The Pants
TTITLE5=Rollin' And Tomblin'
TTITLE6=Worried Headache Blues
TTITLE7=Highway Is My Life
TTITLE8=My Baby
TTITLE9=If The Ocean Was Whiskey
TTITLE10=I've Got To Leave Chi-Town
TTITLE11=Gate Bait
EXTD=
EXTT0=
EXTT1=
EXTT2=
EXTT3=
EXTT4=
EXTT5=
EXTT6=
EXTT7=
EXTT8=
EXTT9=
EXTT10=
EXTT11=
PLAYORDER=
